<?xml version="1.0" encoding="iso-8859-1"?>
<!-- Generator: Adobe Illustrator 22.1.0, SVG Export Plug-In . SVG Version: 6.00 Build 0)  -->
<svg version="1.1" id="Capa_1" xmlns="http://www.w3.org/2000/svg" xmlns:xlink="http://www.w3.org/1999/xlink" x="0px" y="0px"
	 viewBox="0 0 235.236 125.994" style="enable-background:new 0 0 235.236 125.994;" xml:space="preserve">
<g>
	<path style="fill:#FFFFFF;" d="M24,97.964c-0.482,0.125-0.985,0.188-1.509,0.188c-1.194,0-2.174-0.385-2.938-1.155
		c-0.765-0.771-1.147-1.768-1.147-2.994c0-1.226,0.401-2.25,1.203-3.072c0.801-0.822,1.789-1.233,2.962-1.233
		c0.094,0,0.188,0.002,0.283,0.008c0.094,0.005,0.189,0.013,0.283,0.023c0.357,0.042,0.705,0.126,1.046,0.252
		c0.34,0.125,0.657,0.288,0.951,0.486l-0.833,1.069c-0.199-0.126-0.388-0.226-0.566-0.299c-0.178-0.074-0.351-0.126-0.518-0.157
		c-0.105-0.021-0.209-0.036-0.315-0.047c-0.104-0.011-0.209-0.016-0.314-0.016c-0.461,0-0.878,0.106-1.25,0.321
		c-0.372,0.215-0.658,0.522-0.857,0.92c-0.115,0.22-0.199,0.474-0.251,0.763c-0.053,0.288-0.079,0.631-0.079,1.029
		c0,0.492,0.05,0.891,0.149,1.194c0.1,0.304,0.264,0.591,0.495,0.864l0.024,0.023l0.023,0.023c0.241,0.23,0.514,0.409,0.817,0.535
		c0.304,0.125,0.634,0.188,0.99,0.188c0.272,0,0.537-0.038,0.793-0.11c0.257-0.073,0.49-0.168,0.7-0.283
		c0.021-0.01,0.055-0.026,0.102-0.048c0.047-0.021,0.123-0.057,0.228-0.109l0.833,1.021C24.917,97.634,24.483,97.838,24,97.964z"/>
	<path style="fill:#FFFFFF;" d="M38.393,98.058l-0.833-2.199h-3.08l-0.849,2.199h-1.634l3.206-8.203h1.792l3.175,8.203H38.393z
		 M36.877,93.886c-0.1-0.277-0.207-0.568-0.322-0.872v-0.032c0-0.011-0.005-0.016-0.016-0.016c-0.094-0.262-0.184-0.513-0.267-0.754
		c-0.083-0.24-0.157-0.451-0.22-0.628l-1.1,2.954h2.169C37.057,94.38,36.976,94.163,36.877,93.886z"/>
	<path style="fill:#FFFFFF;" d="M52.676,98.058h-4.998v-8.203h1.604v6.853h3.615L52.676,98.058z"/>
	<path style="fill:#FFFFFF;" d="M60.768,98.058v-8.219h1.603v8.219H60.768z"/>
	<path style="fill:#FFFFFF;" d="M77.299,96.368c-0.419,0.603-0.885,1.04-1.398,1.312c-0.188,0.095-0.375,0.17-0.558,0.229
		c-0.184,0.058-0.354,0.091-0.511,0.102c-0.136,0.011-0.301,0.021-0.495,0.031c-0.194,0.011-0.411,0.016-0.652,0.016h-2.562v-8.156
		h2.027c0.283,0,0.558,0.003,0.825,0.008c0.267,0.005,0.489,0.019,0.667,0.04c0.356,0.042,0.702,0.13,1.037,0.267
		c0.336,0.137,0.65,0.324,0.943,0.566c0.451,0.365,0.78,0.802,0.99,1.304c0.21,0.503,0.314,1.132,0.314,1.886
		C77.927,94.967,77.718,95.766,77.299,96.368z M76.049,92.731c-0.11-0.347-0.286-0.64-0.526-0.88
		c-0.262-0.262-0.545-0.433-0.849-0.512c-0.304-0.078-0.665-0.117-1.084-0.117h-0.864v5.501h0.833c0.157,0,0.291-0.003,0.401-0.008
		c0.11-0.006,0.212-0.014,0.307-0.023c0.041-0.011,0.088-0.022,0.141-0.032c0.052-0.011,0.11-0.021,0.173-0.031
		c0.471-0.095,0.862-0.338,1.171-0.73c0.309-0.393,0.464-1.014,0.464-1.862C76.215,93.511,76.159,93.076,76.049,92.731z"/>
	<path style="fill:#FFFFFF;" d="M90.404,98.058l-0.833-2.199h-3.08l-0.849,2.199h-1.634l3.206-8.203h1.792l3.174,8.203H90.404z
		 M88.887,93.886c-0.1-0.277-0.207-0.568-0.322-0.872v-0.032c0-0.011-0.005-0.016-0.016-0.016c-0.094-0.262-0.184-0.513-0.267-0.754
		c-0.084-0.24-0.157-0.451-0.22-0.628l-1.1,2.954h2.168C89.068,94.38,88.987,94.163,88.887,93.886z"/>
	<path style="fill:#FFFFFF;" d="M105.834,96.368c-0.42,0.603-0.886,1.04-1.399,1.312c-0.188,0.095-0.375,0.17-0.558,0.229
		c-0.183,0.058-0.354,0.091-0.511,0.102c-0.136,0.011-0.301,0.021-0.495,0.031c-0.193,0.011-0.411,0.016-0.652,0.016h-2.562v-8.156
		h2.027c0.283,0,0.558,0.003,0.825,0.008c0.268,0.005,0.49,0.019,0.667,0.04c0.356,0.042,0.702,0.13,1.038,0.267
		c0.335,0.137,0.649,0.324,0.943,0.566c0.451,0.365,0.781,0.802,0.99,1.304c0.209,0.503,0.314,1.132,0.314,1.886
		C106.462,94.967,106.253,95.766,105.834,96.368z M104.584,92.731c-0.11-0.347-0.286-0.64-0.526-0.88
		c-0.262-0.262-0.544-0.433-0.849-0.512c-0.304-0.078-0.665-0.117-1.084-0.117h-0.864v5.501h0.832c0.157,0,0.291-0.003,0.401-0.008
		c0.11-0.006,0.212-0.014,0.307-0.023c0.041-0.011,0.089-0.022,0.141-0.032c0.053-0.011,0.11-0.021,0.173-0.031
		c0.472-0.095,0.862-0.338,1.171-0.73c0.309-0.393,0.464-1.014,0.464-1.862C104.749,93.511,104.694,93.076,104.584,92.731z"/>
	<path style="fill:#FFFFFF;" d="M125.82,98.058v-8.219h1.603v8.219H125.82z"/>
	<path style="fill:#FFFFFF;" d="M143.733,98.058l-0.503-5.201c0-0.042-0.003-0.085-0.008-0.126
		c-0.005-0.042-0.008-0.084-0.008-0.125c-0.01-0.043-0.016-0.085-0.016-0.127v-0.126c-0.01,0.043-0.023,0.082-0.039,0.118
		c-0.016,0.037-0.028,0.076-0.039,0.118c-0.021,0.042-0.037,0.084-0.047,0.126c-0.01,0.041-0.026,0.084-0.047,0.126l-1.823,5.217
		h-1.32l-1.776-5.232c-0.031-0.085-0.062-0.173-0.094-0.268c-0.032-0.095-0.058-0.189-0.079-0.283c0,0.062-0.003,0.124-0.008,0.181
		c-0.005,0.058-0.013,0.112-0.024,0.166c0,0.031-0.003,0.06-0.008,0.086c-0.005,0.025-0.008,0.055-0.008,0.087l-0.487,5.264h-1.54
		l0.865-8.203h1.979l1.572,4.667c0.021,0.073,0.044,0.152,0.07,0.236c0.026,0.084,0.055,0.168,0.086,0.251
		c0,0.021,0.003,0.043,0.008,0.063c0.005,0.021,0.014,0.042,0.024,0.062c0.021,0.073,0.039,0.145,0.055,0.212
		c0.016,0.068,0.034,0.134,0.055,0.196c0.021-0.062,0.039-0.128,0.055-0.196c0.016-0.067,0.035-0.134,0.055-0.196
		c0.031-0.104,0.06-0.207,0.087-0.306c0.026-0.101,0.055-0.191,0.086-0.275l1.571-4.715h2.074l0.817,8.203H143.733z"/>
	<path style="fill:#FFFFFF;" d="M159.399,93.485c-0.178,0.314-0.403,0.593-0.676,0.833c-0.031,0.021-0.061,0.045-0.087,0.07
		c-0.026,0.027-0.055,0.051-0.086,0.071c-0.283,0.21-0.587,0.355-0.912,0.44c-0.325,0.083-0.754,0.125-1.289,0.125h-1.352v3.033
		h-1.587v-8.219h2.593c0.66,0,1.139,0.026,1.438,0.078c0.299,0.053,0.563,0.137,0.794,0.252c0.021,0.011,0.04,0.021,0.055,0.031
		c0.016,0.011,0.034,0.021,0.055,0.031c0.419,0.22,0.744,0.511,0.975,0.872c0.23,0.361,0.346,0.773,0.346,1.233
		C159.666,92.788,159.576,93.17,159.399,93.485z M157.811,91.882c-0.073-0.157-0.183-0.288-0.33-0.394
		c-0.168-0.126-0.375-0.209-0.621-0.251c-0.246-0.041-0.547-0.062-0.903-0.062h-0.959v2.515h1.273c0.335,0,0.589-0.023,0.762-0.07
		c0.173-0.048,0.333-0.135,0.479-0.261c0-0.01,0.002-0.018,0.008-0.024c0.005-0.005,0.013-0.008,0.023-0.008
		c0.126-0.114,0.22-0.246,0.283-0.393c0.063-0.146,0.094-0.304,0.094-0.472C157.921,92.234,157.885,92.039,157.811,91.882z"/>
	<path style="fill:#FFFFFF;" d="M172.393,98.058l-0.141-0.282c-0.042-0.084-0.084-0.163-0.126-0.236
		c-0.021-0.021-0.037-0.041-0.047-0.063l-0.031-0.062c-0.053-0.083-0.113-0.175-0.181-0.274c-0.068-0.1-0.149-0.212-0.243-0.338
		c-0.293-0.44-0.569-0.807-0.825-1.1c-0.257-0.294-0.495-0.54-0.715-0.739c-0.042-0.042-0.084-0.078-0.126-0.109
		c-0.042-0.032-0.084-0.059-0.126-0.079c-0.063-0.031-0.126-0.058-0.189-0.078c-0.062-0.021-0.131-0.037-0.204-0.047v3.409h-1.603
		v-8.203h2.373c0.702,0,1.226,0.034,1.571,0.103c0.346,0.067,0.639,0.175,0.88,0.321c0.325,0.199,0.587,0.466,0.786,0.802
		c0.198,0.336,0.298,0.708,0.298,1.116c0,0.67-0.188,1.209-0.565,1.619c-0.377,0.408-0.912,0.654-1.603,0.738
		c0.021,0.01,0.04,0.025,0.055,0.047c0.016,0.021,0.029,0.042,0.039,0.063c0.105,0.125,0.244,0.29,0.416,0.494
		c0.173,0.204,0.354,0.422,0.543,0.652c0.031,0.042,0.065,0.084,0.102,0.126c0.037,0.042,0.071,0.078,0.102,0.109
		c0.011,0.021,0.021,0.04,0.031,0.056c0.011,0.016,0.021,0.028,0.031,0.039c0.084,0.104,0.181,0.228,0.291,0.369
		c0.11,0.142,0.228,0.285,0.354,0.433c0.22,0.282,0.422,0.54,0.605,0.771l0.275,0.345H172.393z M171.898,91.655
		c-0.13-0.163-0.316-0.28-0.558-0.354c-0.136-0.041-0.29-0.072-0.464-0.094c-0.172-0.021-0.379-0.031-0.621-0.031h-0.817v2.263
		h0.676c0.419,0,0.749-0.023,0.99-0.071c0.241-0.047,0.44-0.127,0.597-0.243c0.126-0.094,0.223-0.215,0.291-0.361
		s0.102-0.319,0.102-0.519C172.094,92.013,172.029,91.817,171.898,91.655z"/>
	<path style="fill:#FFFFFF;" d="M182.15,98.058v-8.172h5.485l-0.22,1.336h-3.662v1.901h3.08v1.336h-3.064v2.2h3.976v1.398H182.15z"
		/>
	<path style="fill:#FFFFFF;" d="M201.478,96.809c-0.252,0.393-0.602,0.705-1.053,0.936c-0.293,0.157-0.621,0.271-0.982,0.345
		c-0.362,0.074-0.757,0.11-1.187,0.11c-0.545,0-1.092-0.062-1.642-0.188c-0.55-0.125-1.087-0.336-1.611-0.629l0.676-1.257
		c0.336,0.179,0.652,0.324,0.951,0.44c0.299,0.115,0.595,0.198,0.888,0.251c0.136,0.02,0.272,0.036,0.409,0.048
		c0.136,0.01,0.272,0.016,0.408,0.016c0.273,0,0.503-0.023,0.692-0.063c0.188-0.042,0.366-0.115,0.534-0.22
		c0.178-0.104,0.317-0.229,0.417-0.37c0.1-0.141,0.149-0.301,0.149-0.479c0-0.272-0.116-0.497-0.346-0.676
		c-0.23-0.178-0.603-0.33-1.116-0.456l-1.21-0.299c-0.639-0.157-1.148-0.435-1.524-0.833c-0.377-0.398-0.566-0.854-0.566-1.367
		c0-0.723,0.298-1.317,0.896-1.784c0.597-0.466,1.367-0.698,2.31-0.698c0.115,0,0.231,0.002,0.346,0.008
		c0.115,0.005,0.23,0.013,0.345,0.023c0.43,0.052,0.854,0.149,1.273,0.291c0.419,0.141,0.801,0.332,1.147,0.573l-0.738,1.132
		c-0.377-0.21-0.734-0.37-1.069-0.479c-0.335-0.11-0.665-0.176-0.99-0.196c-0.042-0.011-0.083-0.016-0.126-0.016h-0.126
		c-0.461,0-0.838,0.083-1.131,0.251c-0.294,0.168-0.441,0.403-0.441,0.707c0,0.157,0.055,0.299,0.165,0.424
		c0.11,0.126,0.27,0.23,0.48,0.315l0.062,0.031l0.063,0.031c0.031,0.01,0.064,0.023,0.095,0.039c0.031,0.017,0.063,0.029,0.094,0.04
		c0.042,0.011,0.092,0.021,0.149,0.031c0.058,0.01,0.124,0.025,0.197,0.047l1.131,0.282c0.335,0.085,0.658,0.202,0.967,0.354
		c0.309,0.152,0.562,0.317,0.762,0.495c0.199,0.188,0.354,0.42,0.464,0.692c0.11,0.271,0.165,0.556,0.165,0.849
		C201.855,95.999,201.729,96.415,201.478,96.809z"/>
	<path style="fill:#FFFFFF;" d="M214.991,98.058l-0.833-2.199h-3.08l-0.849,2.199h-1.634l3.206-8.203h1.792l3.174,8.203H214.991z
		 M213.475,93.886c-0.1-0.277-0.207-0.568-0.323-0.872v-0.032c0-0.011-0.005-0.016-0.016-0.016
		c-0.094-0.262-0.183-0.513-0.267-0.754c-0.084-0.24-0.158-0.451-0.22-0.628l-1.1,2.954h2.169
		C213.655,94.38,213.574,94.163,213.475,93.886z"/>
	<g>
		<path style="fill:#FFFFFF;" d="M38.507,69.347c-1.348,0.401-2.734,0.665-4.16,0.79c-0.279,0.03-0.558,0.053-0.837,0.069
			c-0.278,0.015-0.558,0.023-0.836,0.023c-2.076,0-3.974-0.334-5.693-1.001c-1.72-0.666-3.215-1.665-4.486-2.997
			c-1.393-1.456-2.424-3.19-3.089-5.206c-0.667-2.014-0.999-4.383-0.999-7.11c0-3.037,0.425-5.654,1.278-7.854
			c0.852-2.201,2.13-4.027,3.833-5.485c1.177-1.022,2.487-1.789,3.928-2.299c1.441-0.512,3.013-0.768,4.717-0.768
			c1.767,0,3.424,0.285,4.973,0.86c1.549,0.572,3.037,1.447,4.462,2.624l-2.277,3.021c-0.961-0.618-1.822-1.107-2.58-1.464
			c-0.759-0.357-1.495-0.628-2.208-0.814c-0.372-0.061-0.744-0.116-1.114-0.163c-0.373-0.046-0.76-0.069-1.163-0.069
			c-1.735,0-3.261,0.403-4.577,1.209c-1.317,0.807-2.286,2.03-2.906,3.672c-0.402,1.146-0.705,2.347-0.906,3.602
			c-0.201,1.255-0.302,2.611-0.302,4.067c0,1.983,0.186,3.749,0.558,5.299c0.372,1.549,0.899,2.819,1.58,3.81
			c0.589,0.836,1.449,1.51,2.58,2.021c1.13,0.512,2.316,0.845,3.555,1c0.186,0,0.379,0.008,0.581,0.022
			c0.201,0.016,0.395,0.023,0.58,0.023c0.9,0,1.736-0.086,2.51-0.255c0.775-0.171,1.456-0.411,2.045-0.721v-8.691h-6.321
			l-0.976-4.044h11.899V67.72C41.071,68.401,39.855,68.943,38.507,69.347z"/>
		<path style="fill:#FFFFFF;" d="M84.824,69.718l-3.021-9.528H70.648l-3.021,9.528h-4.927l11.015-31.884h5.624l10.922,31.884H84.824
			z M79.897,54.124c-0.309-0.883-0.62-1.821-0.929-2.812c-0.31-0.93-0.604-1.834-0.884-2.718c-0.278-0.884-0.511-1.589-0.697-2.116
			l-1.068-3.299l-1.069,3.067c-0.031,0.154-0.218,0.766-0.558,1.837c-0.341,1.067-0.713,2.223-1.115,3.461
			c-0.311,0.93-0.597,1.821-0.86,2.673c-0.264,0.852-0.473,1.511-0.627,1.976h8.505C80.44,55.697,80.207,55.007,79.897,54.124z"/>
		<path style="fill:#FFFFFF;" d="M132.283,64.582c-0.311,1.037-0.883,1.96-1.72,2.766c-0.062,0.061-0.131,0.123-0.21,0.186
			c-0.078,0.062-0.147,0.123-0.21,0.187c-1.021,0.866-2.223,1.494-3.601,1.883c-1.379,0.387-3.075,0.579-5.09,0.579
			c-2.572,0-4.664-0.395-6.274-1.184c-1.612-0.791-2.819-1.944-3.625-3.464c-0.062-0.155-0.132-0.302-0.209-0.44
			c-0.077-0.141-0.132-0.271-0.164-0.396c-0.216-0.496-0.371-1.078-0.465-1.743c-0.093-0.667-0.138-1.697-0.138-3.092V37.786h4.787
			v20.312c0,1.023,0.031,1.937,0.093,2.743c0.062,0.805,0.139,1.425,0.232,1.858c0.247,1.116,0.891,1.961,1.929,2.533
			c1.039,0.573,2.378,0.859,4.021,0.859c1.24,0,2.309-0.146,3.207-0.441c0.898-0.294,1.565-0.735,1.999-1.324
			c0.031-0.032,0.054-0.062,0.07-0.093c0.015-0.031,0.038-0.062,0.07-0.094c0.403-0.558,0.666-1.169,0.79-1.836
			c0.125-0.665,0.186-1.634,0.186-2.905V37.786h4.786v21.984C132.746,61.941,132.592,63.544,132.283,64.582z"/>
		<path style="fill:#FFFFFF;" d="M179.947,61.026c-0.698,1.923-1.603,3.472-2.718,4.648c-0.218,0.247-0.435,0.48-0.652,0.698
			c-0.216,0.216-0.433,0.418-0.649,0.604c-1.209,1.053-2.487,1.773-3.835,2.16c-1.348,0.389-3.106,0.582-5.274,0.582h-8.832V38.114
			h6.879c1.86,0,3.409,0.061,4.647,0.184c1.24,0.125,2.417,0.436,3.533,0.931c0.372,0.187,0.752,0.388,1.139,0.604
			c0.387,0.218,0.782,0.465,1.186,0.744c1.89,1.302,3.299,3.076,4.229,5.322c0.93,2.246,1.395,4.935,1.395,8.064
			C180.993,56.75,180.644,59.105,179.947,61.026z M175.3,48.733c-0.357-1.503-1.046-2.843-2.069-4.02l-0.116-0.116l-0.116-0.117
			c-0.96-1.023-1.967-1.673-3.021-1.952c-1.053-0.278-2.339-0.418-3.857-0.418h-3.3v23.517h2.882h1.79
			c0.448,0,0.875-0.031,1.276-0.093c0.124,0,0.249-0.008,0.372-0.022c0.124-0.016,0.248-0.04,0.372-0.07
			c0.9-0.156,1.729-0.473,2.487-0.952c0.759-0.48,1.357-1.078,1.79-1.79c0.712-1.146,1.231-2.424,1.557-3.833
			c0.326-1.412,0.488-2.906,0.488-4.486C175.834,52.118,175.655,50.235,175.3,48.733z"/>
		<path style="fill:#FFFFFF;" d="M205.49,36.022l-1.673-2.604l10.504-5.624l2.51,3.858L205.49,36.022z M205.815,69.718V37.834h4.74
			v31.884H205.815z"/>
	</g>
</g>
</svg>
