<?xml version="1.0" standalone="no"?>
<!DOCTYPE svg PUBLIC "-//W3C//DTD SVG 20010904//EN"
 "http://www.w3.org/TR/2001/REC-SVG-20010904/DTD/svg10.dtd">
<svg version="1.0" xmlns="http://www.w3.org/2000/svg"
 width="591.000000pt" height="591.000000pt" viewBox="0 0 591.000000 591.000000"
 preserveAspectRatio="xMidYMid meet">
<metadata>
Created by potrace 1.11, written by Peter Selinger 2001-2013
</metadata>
<g transform="translate(0.000000,591.000000) scale(0.100000,-0.100000)"
fill="#000000" stroke="none">
<path d="M503 4219 c0 -654 1 -1189 3 -1189 1 0 56 53 120 117 l117 117 0 952
0 951 931 1 c512 0 941 1 953 1 15 1 62 41 138 117 63 64 115 118 115 119 0 1
-535 2 -1189 2 l-1188 0 0 -1188z"/>
<path d="M3144 5289 c-65 -66 -114 -119 -109 -120 6 0 487 -1 1070 -2 l1060
-2 0 -952 0 -951 118 -118 c64 -64 117 -113 118 -108 1 12 1 2345 0 2360 -1 9
-282 12 -1070 11 l-1069 0 -118 -118z"/>
<path d="M5166 1823 c0 -582 -1 -1062 -3 -1068 -2 -7 -366 -10 -1068 -9 -586
1 -1065 -1 -1065 -4 0 -3 52 -57 116 -120 l116 -115 1065 -1 c938 -1 1066 1
1072 14 3 8 6 491 5 1073 l-1 1058 -114 115 c-62 63 -116 114 -119 114 -3 0
-5 -476 -4 -1057z"/>
</g>
</svg>
